<svg xmlns="http://www.w3.org/2000/svg" width="512" height="512" viewBox="0 0 512 512" role="img" aria-label="Heart gemstone">
<defs>
  <radialGradient id="base" cx="34%" cy="22%" r="88%">
    <stop offset="0" stop-color="hsl(var(--gem-hue,210) 100% 91%)"/>
    <stop offset=".12" stop-color="hsl(var(--gem-hue,210) 100% 73%)"/>
    <stop offset=".30" stop-color="hsl(var(--gem-hue,210) 98% 55%)"/>
    <stop offset=".56" stop-color="hsl(var(--gem-hue,210) 94% 38%)"/>
    <stop offset=".80" stop-color="hsl(var(--gem-hue,210) 90% 22%)"/>
    <stop offset="1" stop-color="hsl(var(--gem-hue,210) 96% 9%)"/>
  </radialGradient>

  <linearGradient id="flash" x1="0" y1="0" x2="1" y2="1">
    <stop offset="0" stop-color="#fff" stop-opacity=".98"/>
    <stop offset=".34" stop-color="hsl(var(--gem-hue,210) 100% 88%)" stop-opacity=".94"/>
    <stop offset="1" stop-color="hsl(var(--gem-hue,210) 100% 64%)" stop-opacity=".38"/>
  </linearGradient>
  <linearGradient id="light" x1="0" y1="0" x2="1" y2="1">
    <stop offset="0" stop-color="#fff" stop-opacity=".90"/>
    <stop offset=".34" stop-color="hsl(var(--gem-hue,210) 100% 82%)" stop-opacity=".84"/>
    <stop offset="1" stop-color="hsl(var(--gem-hue,210) 97% 56%)" stop-opacity=".28"/>
  </linearGradient>
  <linearGradient id="mid" x1="1" y1="0" x2="0" y2="1">
    <stop offset="0" stop-color="hsl(var(--gem-hue,210) 100% 76%)"/>
    <stop offset=".48" stop-color="hsl(var(--gem-hue,210) 96% 48%)"/>
    <stop offset="1" stop-color="hsl(var(--gem-hue,210) 88% 24%)"/>
  </linearGradient>
  <linearGradient id="dark" x1="0" y1="0" x2="1" y2="1">
    <stop offset="0" stop-color="hsl(var(--gem-hue,210) 90% 42%)"/>
    <stop offset=".46" stop-color="hsl(var(--gem-hue,210) 90% 21%)"/>
    <stop offset="1" stop-color="hsl(var(--gem-hue,210) 98% 11%)"/>
  </linearGradient>
  <linearGradient id="deep" x1="0" y1="0" x2="1" y2="1">
    <stop offset="0" stop-color="hsl(var(--gem-hue,210) 88% 26%)"/>
    <stop offset=".5" stop-color="hsl(var(--gem-hue,210) 94% 13%)"/>
    <stop offset="1" stop-color="#010611"/>
  </linearGradient>

  <radialGradient id="table" cx="38%" cy="30%" r="78%">
    <stop offset="0" stop-color="hsl(var(--gem-hue,210) 100% 84%)" stop-opacity=".58"/>
    <stop offset=".30" stop-color="hsl(var(--gem-hue,210) 98% 56%)" stop-opacity=".72"/>
    <stop offset=".72" stop-color="hsl(var(--gem-hue,210) 88% 31%)" stop-opacity=".88"/>
    <stop offset="1" stop-color="hsl(var(--gem-hue,210) 93% 20%)" stop-opacity=".94"/>
  </radialGradient>
  <linearGradient id="tableGlass" x1="0" y1="0" x2="1" y2="1">
    <stop offset="0" stop-color="#fff" stop-opacity=".26"/>
    <stop offset=".48" stop-color="hsl(var(--gem-hue,210) 100% 73%)" stop-opacity=".10"/>
    <stop offset="1" stop-color="hsl(var(--gem-hue,210) 100% 18%)" stop-opacity=".22"/>
  </linearGradient>

  <linearGradient id="rim" x1="0" y1="0" x2="1" y2="1">
    <stop offset="0" stop-color="#fff" stop-opacity=".78"/>
    <stop offset=".45" stop-color="hsl(var(--gem-hue,210) 100% 84%)" stop-opacity=".30"/>
    <stop offset="1" stop-color="#000" stop-opacity=".18"/>
  </linearGradient>

  <filter id="drop" x="-40%" y="-40%" width="180%" height="200%">
    <feDropShadow dx="0" dy="10" stdDeviation="10" flood-color="#001020" flood-opacity=".28"/>
  </filter>
  <filter id="blur" x="-80%" y="-80%" width="260%" height="260%">
    <feGaussianBlur stdDeviation="8"/>
  </filter>
  <clipPath id="clip"><polygon points="256.00,209.00 258.15,197.02 271.94,167.85 303.31,138.00 349.29,124.57 398.76,136.65 436.88,172.14 451.20,221.20 436.88,273.15 398.76,321.85 349.29,366.30 303.31,407.17 271.94,442.78 258.15,468.11 256.00,477.40 253.85,468.11 240.06,442.78 208.69,407.17 162.71,366.30 113.24,321.85 75.12,273.15 60.80,221.20 75.12,172.14 113.24,136.65 162.71,124.57 208.69,138.00 240.06,167.85 253.85,197.02"/></clipPath>
</defs>

<g filter="url(#drop)">
  <polygon points="256.00,209.00 258.15,197.02 271.94,167.85 303.31,138.00 349.29,124.57 398.76,136.65 436.88,172.14 451.20,221.20 436.88,273.15 398.76,321.85 349.29,366.30 303.31,407.17 271.94,442.78 258.15,468.11 256.00,477.40 253.85,468.11 240.06,442.78 208.69,407.17 162.71,366.30 113.24,321.85 75.12,273.15 60.80,221.20 75.12,172.14 113.24,136.65 162.71,124.57 208.69,138.00 240.06,167.85 253.85,197.02" fill="url(#base)"/>
  <g clip-path="url(#clip)">
    <polygon points="256.00,209.00 256.71,205.05 256.51,211.01 256.00,213.88" fill="url(#light)" opacity="0.95"/>
<polygon points="256.71,205.05 257.44,200.97 257.35,206.38 256.51,211.01" fill="url(#light)" opacity="0.95"/>
<polygon points="257.44,200.97 258.15,197.02 257.98,202.86 257.35,206.38" fill="url(#light)" opacity="0.95"/>
<polygon points="258.15,197.02 262.70,187.39 261.28,195.88 257.98,202.86" fill="url(#light)" opacity="0.95"/>
<polygon points="262.70,187.39 267.39,177.48 266.61,184.61 261.28,195.88" fill="url(#light)" opacity="0.95"/>
<polygon points="267.39,177.48 271.94,167.85 270.67,176.03 266.61,184.61" fill="url(#light)" opacity="0.95"/>
<polygon points="271.94,167.85 282.30,158.00 278.17,168.88 270.67,176.03" fill="url(#light)" opacity="0.95"/>
<polygon points="282.30,158.00 292.96,147.85 290.29,157.35 278.17,168.88" fill="url(#light)" opacity="0.95"/>
<polygon points="292.96,147.85 303.31,138.00 299.53,148.56 290.29,157.35" fill="url(#light)" opacity="0.95"/>
<polygon points="303.31,138.00 318.48,133.56 310.52,145.34 299.53,148.56" fill="url(#light)" opacity="0.95"/>
<polygon points="318.48,133.56 334.11,129.00 328.29,140.15 310.52,145.34" fill="url(#mid)" opacity="0.9"/>
<polygon points="334.11,129.00 349.29,124.57 341.82,136.20 328.29,140.15" fill="url(#mid)" opacity="0.9"/>
<polygon points="349.29,124.57 365.61,128.55 353.66,139.09 341.82,136.20" fill="url(#mid)" opacity="0.9"/>
<polygon points="365.61,128.55 382.43,132.66 372.77,143.76 353.66,139.09" fill="url(#mid)" opacity="0.9"/>
<polygon points="382.43,132.66 398.76,136.65 387.34,147.32 372.77,143.76" fill="url(#mid)" opacity="0.9"/>
<polygon points="398.76,136.65 411.34,148.36 396.46,155.81 387.34,147.32" fill="url(#dark)" opacity="0.93"/>
<polygon points="411.34,148.36 424.30,160.43 411.19,169.52 396.46,155.81" fill="url(#dark)" opacity="0.93"/>
<polygon points="424.30,160.43 436.88,172.14 422.41,179.97 411.19,169.52" fill="url(#dark)" opacity="0.93"/>
<polygon points="436.88,172.14 441.61,188.33 425.84,191.71 422.41,179.97" fill="url(#dark)" opacity="0.93"/>
<polygon points="441.61,188.33 446.48,205.01 431.37,210.66 425.84,191.71" fill="url(#dark)" opacity="0.93"/>
<polygon points="446.48,205.01 451.20,221.20 435.58,225.10 431.37,210.66" fill="url(#deep)" opacity="0.96"/>
<polygon points="451.20,221.20 446.48,238.34 432.16,237.53 435.58,225.10" fill="url(#deep)" opacity="0.96"/>
<polygon points="446.48,238.34 441.61,256.01 426.63,257.61 432.16,237.53" fill="url(#deep)" opacity="0.96"/>
<polygon points="441.61,256.01 436.88,273.15 422.41,272.90 426.63,257.61" fill="url(#deep)" opacity="0.96"/>
<polygon points="436.88,273.15 424.30,289.22 413.29,284.55 422.41,272.90" fill="url(#deep)" opacity="0.96"/>
<polygon points="424.30,289.22 411.34,305.78 398.56,303.37 413.29,284.55" fill="url(#deep)" opacity="0.96"/>
<polygon points="411.34,305.78 398.76,321.85 387.34,317.71 398.56,303.37" fill="url(#deep)" opacity="0.96"/>
<polygon points="398.76,321.85 382.43,336.52 375.51,328.34 387.34,317.71" fill="url(#deep)" opacity="0.96"/>
<polygon points="382.43,336.52 365.61,351.64 356.39,345.51 375.51,328.34" fill="url(#deep)" opacity="0.96"/>
<polygon points="365.61,351.64 349.29,366.30 341.82,358.60 356.39,345.51" fill="url(#deep)" opacity="0.96"/>
<polygon points="349.29,366.30 334.11,379.79 330.83,368.37 341.82,358.60" fill="url(#deep)" opacity="0.96"/>
<polygon points="334.11,379.79 318.48,393.68 313.06,384.16 330.83,368.37" fill="url(#deep)" opacity="0.96"/>
<polygon points="318.48,393.68 303.31,407.17 299.53,396.19 313.06,384.16" fill="url(#deep)" opacity="0.96"/>
<polygon points="303.31,407.17 292.96,418.92 292.02,404.71 299.53,396.19" fill="url(#deep)" opacity="0.96"/>
<polygon points="292.96,418.92 282.30,431.03 279.90,418.47 292.02,404.71" fill="url(#deep)" opacity="0.96"/>
<polygon points="282.30,431.03 271.94,442.78 270.67,428.96 279.90,418.47" fill="url(#deep)" opacity="0.96"/>
<polygon points="271.94,442.78 267.39,451.14 267.37,435.02 270.67,428.96" fill="url(#deep)" opacity="0.96"/>
<polygon points="267.39,451.14 262.70,459.75 262.04,444.81 267.37,435.02" fill="url(#deep)" opacity="0.96"/>
<polygon points="262.70,459.75 258.15,468.11 257.98,452.26 262.04,444.81" fill="url(#deep)" opacity="0.96"/>
<polygon points="258.15,468.11 257.44,471.18 257.46,454.49 257.98,452.26" fill="url(#deep)" opacity="0.96"/>
<polygon points="257.44,471.18 256.71,474.34 256.63,458.07 257.46,454.49" fill="url(#deep)" opacity="0.96"/>
<polygon points="256.71,474.34 256.00,477.40 256.00,460.81 256.63,458.07" fill="url(#deep)" opacity="0.96"/>
<polygon points="256.00,477.40 255.29,474.34 255.49,458.59 256.00,460.81" fill="url(#deep)" opacity="0.96"/>
<polygon points="255.29,474.34 254.56,471.18 254.65,455.00 255.49,458.59" fill="url(#deep)" opacity="0.96"/>
<polygon points="254.56,471.18 253.85,468.11 254.02,452.26 254.65,455.00" fill="url(#deep)" opacity="0.96"/>
<polygon points="253.85,468.11 249.30,459.75 250.72,446.20 254.02,452.26" fill="url(#deep)" opacity="0.96"/>
<polygon points="249.30,459.75 244.61,451.14 245.39,436.42 250.72,446.20" fill="url(#deep)" opacity="0.96"/>
<polygon points="244.61,451.14 240.06,442.78 241.33,428.96 245.39,436.42" fill="url(#deep)" opacity="0.96"/>
<polygon points="240.06,442.78 229.70,431.03 233.83,420.44 241.33,428.96" fill="url(#deep)" opacity="0.96"/>
<polygon points="229.70,431.03 219.04,418.92 221.71,406.68 233.83,420.44" fill="url(#deep)" opacity="0.96"/>
<polygon points="219.04,418.92 208.69,407.17 212.47,396.19 221.71,406.68" fill="url(#deep)" opacity="0.96"/>
<polygon points="208.69,407.17 193.52,393.68 201.48,386.42 212.47,396.19" fill="url(#deep)" opacity="0.96"/>
<polygon points="193.52,393.68 177.89,379.79 183.71,370.63 201.48,386.42" fill="url(#dark)" opacity="0.93"/>
<polygon points="177.89,379.79 162.71,366.30 170.18,358.60 183.71,370.63" fill="url(#dark)" opacity="0.93"/>
<polygon points="162.71,366.30 146.39,351.64 158.34,347.97 170.18,358.60" fill="url(#dark)" opacity="0.93"/>
<polygon points="146.39,351.64 129.57,336.52 139.23,330.79 158.34,347.97" fill="url(#mid)" opacity="0.9"/>
<polygon points="129.57,336.52 113.24,321.85 124.66,317.71 139.23,330.79" fill="url(#mid)" opacity="0.9"/>
<polygon points="113.24,321.85 100.66,305.78 115.54,306.06 124.66,317.71" fill="url(#mid)" opacity="0.9"/>
<polygon points="100.66,305.78 87.70,289.22 100.81,287.24 115.54,306.06" fill="url(#mid)" opacity="0.9"/>
<polygon points="87.70,289.22 75.12,273.15 89.59,272.90 100.81,287.24" fill="url(#mid)" opacity="0.9"/>
<polygon points="75.12,273.15 70.39,256.01 86.16,260.47 89.59,272.90" fill="url(#mid)" opacity="0.9"/>
<polygon points="70.39,256.01 65.52,238.34 80.63,240.40 86.16,260.47" fill="url(#light)" opacity="0.95"/>
<polygon points="65.52,238.34 60.80,221.20 76.42,225.10 80.63,240.40" fill="url(#light)" opacity="0.95"/>
<polygon points="60.80,221.20 65.52,205.01 79.84,213.37 76.42,225.10" fill="url(#light)" opacity="0.95"/>
<polygon points="65.52,205.01 70.39,188.33 85.37,194.41 79.84,213.37" fill="url(#light)" opacity="0.95"/>
<polygon points="70.39,188.33 75.12,172.14 89.59,179.97 85.37,194.41" fill="url(#light)" opacity="0.95"/>
<polygon points="75.12,172.14 87.70,160.43 98.71,171.48 89.59,179.97" fill="url(#light)" opacity="0.95"/>
<polygon points="87.70,160.43 100.66,148.36 113.44,157.77 98.71,171.48" fill="url(#light)" opacity="0.95"/>
<polygon points="100.66,148.36 113.24,136.65 124.66,147.32 113.44,157.77" fill="url(#light)" opacity="0.95"/>
<polygon points="113.24,136.65 129.57,132.66 136.49,144.43 124.66,147.32" fill="url(#light)" opacity="0.95"/>
<polygon points="129.57,132.66 146.39,128.55 155.61,139.76 136.49,144.43" fill="url(#light)" opacity="0.95"/>
<polygon points="146.39,128.55 162.71,124.57 170.18,136.20 155.61,139.76" fill="url(#light)" opacity="0.95"/>
<polygon points="162.71,124.57 177.89,129.00 181.17,139.41 170.18,136.20" fill="url(#light)" opacity="0.95"/>
<polygon points="177.89,129.00 193.52,133.56 198.94,144.60 181.17,139.41" fill="url(#flash)" opacity="0.98"/>
<polygon points="193.52,133.56 208.69,138.00 212.47,148.56 198.94,144.60" fill="url(#light)" opacity="0.95"/>
<polygon points="208.69,138.00 219.04,147.85 219.98,155.70 212.47,148.56" fill="url(#light)" opacity="0.95"/>
<polygon points="219.04,147.85 229.70,158.00 232.10,167.24 219.98,155.70" fill="url(#light)" opacity="0.95"/>
<polygon points="229.70,158.00 240.06,167.85 241.33,176.03 232.10,167.24" fill="url(#light)" opacity="0.95"/>
<polygon points="240.06,167.85 244.61,177.48 244.63,183.00 241.33,176.03" fill="url(#light)" opacity="0.95"/>
<polygon points="244.61,177.48 249.30,187.39 249.96,194.27 244.63,183.00" fill="url(#light)" opacity="0.95"/>
<polygon points="249.30,187.39 253.85,197.02 254.02,202.86 249.96,194.27" fill="url(#light)" opacity="0.95"/>
<polygon points="253.85,197.02 254.56,200.97 254.54,205.72 254.02,202.86" fill="url(#light)" opacity="0.95"/>
<polygon points="254.56,200.97 255.29,205.05 255.37,210.35 254.54,205.72" fill="url(#light)" opacity="0.95"/>
<polygon points="255.29,205.05 256.00,209.00 256.00,213.88 255.37,210.35" fill="url(#light)" opacity="0.95"/>
<polygon points="256.00,213.88 256.65,210.24 256.46,217.43 256.00,219.98" fill="url(#light)" opacity="0.95"/>
<polygon points="256.65,210.24 257.33,206.49 257.20,213.30 256.46,217.43" fill="url(#light)" opacity="0.95"/>
<polygon points="257.33,206.49 257.98,202.86 257.76,210.16 257.20,213.30" fill="url(#light)" opacity="0.95"/>
<polygon points="257.98,202.86 262.17,194.00 260.70,203.94 257.76,210.16" fill="url(#light)" opacity="0.95"/>
<polygon points="262.17,194.00 266.48,184.88 265.45,193.89 260.70,203.94" fill="url(#light)" opacity="0.95"/>
<polygon points="266.48,184.88 270.67,176.03 269.07,186.24 265.45,193.89" fill="url(#light)" opacity="0.95"/>
<polygon points="270.67,176.03 280.19,166.96 275.76,179.87 269.07,186.24" fill="url(#light)" opacity="0.95"/>
<polygon points="280.19,166.96 290.00,157.62 286.56,169.59 275.76,179.87" fill="url(#light)" opacity="0.95"/>
<polygon points="290.00,157.62 299.53,148.56 294.80,161.76 286.56,169.59" fill="url(#light)" opacity="0.95"/>
<polygon points="299.53,148.56 313.48,144.48 304.60,158.89 294.80,161.76" fill="url(#light)" opacity="0.95"/>
<polygon points="313.48,144.48 327.87,140.28 320.43,154.27 304.60,158.89" fill="url(#mid)" opacity="0.9"/>
<polygon points="327.87,140.28 341.82,136.20 332.50,150.74 320.43,154.27" fill="url(#mid)" opacity="0.9"/>
<polygon points="341.82,136.20 356.84,139.87 343.04,153.32 332.50,150.74" fill="url(#mid)" opacity="0.9"/>
<polygon points="356.84,139.87 372.32,143.65 360.08,157.48 343.04,153.32" fill="url(#mid)" opacity="0.9"/>
<polygon points="372.32,143.65 387.34,147.32 373.06,160.65 360.08,157.48" fill="url(#mid)" opacity="0.9"/>
<polygon points="387.34,147.32 398.91,158.09 381.19,168.22 373.06,160.65" fill="url(#mid)" opacity="0.9"/>
<polygon points="398.91,158.09 410.84,169.20 394.32,180.44 381.19,168.22" fill="url(#dark)" opacity="0.93"/>
<polygon points="410.84,169.20 422.41,179.97 404.32,189.76 394.32,180.44" fill="url(#dark)" opacity="0.93"/>
<polygon points="422.41,179.97 426.76,194.86 407.38,200.22 404.32,189.76" fill="url(#dark)" opacity="0.93"/>
<polygon points="426.76,194.86 431.24,210.21 412.31,217.11 407.38,200.22" fill="url(#dark)" opacity="0.93"/>
<polygon points="431.24,210.21 435.58,225.10 416.06,229.98 412.31,217.11" fill="url(#deep)" opacity="0.96"/>
<polygon points="435.58,225.10 431.24,240.88 413.01,241.06 416.06,229.98" fill="url(#deep)" opacity="0.96"/>
<polygon points="431.24,240.88 426.76,257.13 408.08,258.95 413.01,241.06" fill="url(#deep)" opacity="0.96"/>
<polygon points="426.76,257.13 422.41,272.90 404.32,272.59 408.08,258.95" fill="url(#deep)" opacity="0.96"/>
<polygon points="422.41,272.90 410.84,287.69 396.20,282.97 404.32,272.59" fill="url(#deep)" opacity="0.96"/>
<polygon points="410.84,287.69 398.91,302.92 383.07,299.74 396.20,282.97" fill="url(#deep)" opacity="0.96"/>
<polygon points="398.91,302.92 387.34,317.71 373.06,312.52 383.07,299.74" fill="url(#deep)" opacity="0.96"/>
<polygon points="387.34,317.71 372.32,331.20 362.52,322.00 373.06,312.52" fill="url(#deep)" opacity="0.96"/>
<polygon points="372.32,331.20 356.84,345.10 345.48,337.31 362.52,322.00" fill="url(#deep)" opacity="0.96"/>
<polygon points="356.84,345.10 341.82,358.60 332.50,348.97 345.48,337.31" fill="url(#deep)" opacity="0.96"/>
<polygon points="341.82,358.60 327.87,371.01 322.69,357.68 332.50,348.97" fill="url(#deep)" opacity="0.96"/>
<polygon points="327.87,371.01 313.48,383.79 306.86,371.75 322.69,357.68" fill="url(#deep)" opacity="0.96"/>
<polygon points="313.48,383.79 299.53,396.19 294.80,382.48 306.86,371.75" fill="url(#deep)" opacity="0.96"/>
<polygon points="299.53,396.19 290.00,407.01 288.11,390.07 294.80,382.48" fill="url(#deep)" opacity="0.96"/>
<polygon points="290.00,407.01 280.19,418.15 277.30,402.34 288.11,390.07" fill="url(#deep)" opacity="0.96"/>
<polygon points="280.19,418.15 270.67,428.96 269.07,411.68 277.30,402.34" fill="url(#deep)" opacity="0.96"/>
<polygon points="270.67,428.96 266.48,436.65 266.13,417.08 269.07,411.68" fill="url(#deep)" opacity="0.96"/>
<polygon points="266.48,436.65 262.17,444.57 261.38,425.81 266.13,417.08" fill="url(#deep)" opacity="0.96"/>
<polygon points="262.17,444.57 257.98,452.26 257.76,432.45 261.38,425.81" fill="url(#deep)" opacity="0.96"/>
<polygon points="257.98,452.26 257.33,455.08 257.31,434.43 257.76,432.45" fill="url(#deep)" opacity="0.96"/>
<polygon points="257.33,455.08 256.65,457.99 256.56,437.63 257.31,434.43" fill="url(#deep)" opacity="0.96"/>
<polygon points="256.65,457.99 256.00,460.81 256.00,440.07 256.56,437.63" fill="url(#deep)" opacity="0.96"/>
<polygon points="256.00,460.81 255.35,457.99 255.54,438.09 256.00,440.07" fill="url(#deep)" opacity="0.96"/>
<polygon points="255.35,457.99 254.67,455.08 254.80,434.89 255.54,438.09" fill="url(#deep)" opacity="0.96"/>
<polygon points="254.67,455.08 254.02,452.26 254.24,432.45 254.80,434.89" fill="url(#deep)" opacity="0.96"/>
<polygon points="254.02,452.26 249.83,444.57 251.30,427.05 254.24,432.45" fill="url(#deep)" opacity="0.96"/>
<polygon points="249.83,444.57 245.52,436.65 246.55,418.33 251.30,427.05" fill="url(#deep)" opacity="0.96"/>
<polygon points="245.52,436.65 241.33,428.96 242.93,411.68 246.55,418.33" fill="url(#deep)" opacity="0.96"/>
<polygon points="241.33,428.96 231.81,418.15 236.24,404.09 242.93,411.68" fill="url(#deep)" opacity="0.96"/>
<polygon points="231.81,418.15 222.00,407.01 225.44,391.82 236.24,404.09" fill="url(#deep)" opacity="0.96"/>
<polygon points="222.00,407.01 212.47,396.19 217.20,382.48 225.44,391.82" fill="url(#deep)" opacity="0.96"/>
<polygon points="212.47,396.19 198.52,383.79 207.40,373.76 217.20,382.48" fill="url(#dark)" opacity="0.93"/>
<polygon points="198.52,383.79 184.13,371.01 191.57,359.69 207.40,373.76" fill="url(#dark)" opacity="0.93"/>
<polygon points="184.13,371.01 170.18,358.60 179.50,348.97 191.57,359.69" fill="url(#dark)" opacity="0.93"/>
<polygon points="170.18,358.60 155.16,345.10 168.96,339.49 179.50,348.97" fill="url(#mid)" opacity="0.9"/>
<polygon points="155.16,345.10 139.68,331.20 151.92,324.18 168.96,339.49" fill="url(#mid)" opacity="0.9"/>
<polygon points="139.68,331.20 124.66,317.71 138.94,312.52 151.92,324.18" fill="url(#mid)" opacity="0.9"/>
<polygon points="124.66,317.71 113.09,302.92 130.81,302.14 138.94,312.52" fill="url(#mid)" opacity="0.9"/>
<polygon points="113.09,302.92 101.16,287.69 117.68,285.36 130.81,302.14" fill="url(#mid)" opacity="0.9"/>
<polygon points="101.16,287.69 89.59,272.90 107.68,272.59 117.68,285.36" fill="url(#mid)" opacity="0.9"/>
<polygon points="89.59,272.90 85.24,257.13 104.62,261.51 107.68,272.59" fill="url(#light)" opacity="0.95"/>
<polygon points="85.24,257.13 80.76,240.88 99.69,243.62 104.62,261.51" fill="url(#light)" opacity="0.95"/>
<polygon points="80.76,240.88 76.42,225.10 95.94,229.98 99.69,243.62" fill="url(#light)" opacity="0.95"/>
<polygon points="76.42,225.10 80.76,210.21 98.99,219.52 95.94,229.98" fill="url(#light)" opacity="0.95"/>
<polygon points="80.76,210.21 85.24,194.86 103.92,202.63 98.99,219.52" fill="url(#light)" opacity="0.95"/>
<polygon points="85.24,194.86 89.59,179.97 107.68,189.76 103.92,202.63" fill="url(#light)" opacity="0.95"/>
<polygon points="89.59,179.97 101.16,169.20 115.80,182.19 107.68,189.76" fill="url(#light)" opacity="0.95"/>
<polygon points="101.16,169.20 113.09,158.09 128.93,169.97 115.80,182.19" fill="url(#light)" opacity="0.95"/>
<polygon points="113.09,158.09 124.66,147.32 138.94,160.65 128.93,169.97" fill="url(#light)" opacity="0.95"/>
<polygon points="124.66,147.32 139.68,143.65 149.48,158.08 138.94,160.65" fill="url(#light)" opacity="0.95"/>
<polygon points="139.68,143.65 155.16,139.87 166.52,153.91 149.48,158.08" fill="url(#light)" opacity="0.95"/>
<polygon points="155.16,139.87 170.18,136.20 179.50,150.74 166.52,153.91" fill="url(#flash)" opacity="0.98"/>
<polygon points="170.18,136.20 184.13,140.28 189.31,153.61 179.50,150.74" fill="url(#flash)" opacity="0.98"/>
<polygon points="184.13,140.28 198.52,144.48 205.14,158.23 189.31,153.61" fill="url(#flash)" opacity="0.98"/>
<polygon points="198.52,144.48 212.47,148.56 217.20,161.76 205.14,158.23" fill="url(#flash)" opacity="0.98"/>
<polygon points="212.47,148.56 222.00,157.62 223.89,168.12 217.20,161.76" fill="url(#flash)" opacity="0.98"/>
<polygon points="222.00,157.62 231.81,166.96 234.70,178.41 223.89,168.12" fill="url(#light)" opacity="0.95"/>
<polygon points="231.81,166.96 241.33,176.03 242.93,186.24 234.70,178.41" fill="url(#light)" opacity="0.95"/>
<polygon points="241.33,176.03 245.52,184.88 245.87,192.46 242.93,186.24" fill="url(#light)" opacity="0.95"/>
<polygon points="245.52,184.88 249.83,194.00 250.62,202.50 245.87,192.46" fill="url(#light)" opacity="0.95"/>
<polygon points="249.83,194.00 254.02,202.86 254.24,210.16 250.62,202.50" fill="url(#light)" opacity="0.95"/>
<polygon points="254.02,202.86 254.67,206.49 254.69,212.71 254.24,210.16" fill="url(#light)" opacity="0.95"/>
<polygon points="254.67,206.49 255.35,210.24 255.44,216.84 254.69,212.71" fill="url(#light)" opacity="0.95"/>
<polygon points="255.35,210.24 256.00,213.88 256.00,219.98 255.44,216.84" fill="url(#light)" opacity="0.95"/>
<polygon points="256.00,219.98 256.58,216.74 256.40,223.84 256.00,226.08" fill="url(#light)" opacity="0.95"/>
<polygon points="256.58,216.74 257.18,213.40 257.05,220.21 256.40,223.84" fill="url(#light)" opacity="0.95"/>
<polygon points="257.18,213.40 257.76,210.16 257.55,217.45 257.05,220.21" fill="url(#light)" opacity="0.95"/>
<polygon points="257.76,210.16 261.50,202.26 260.13,211.99 257.55,217.45" fill="url(#light)" opacity="0.95"/>
<polygon points="261.50,202.26 265.34,194.13 264.30,203.17 260.13,211.99" fill="url(#light)" opacity="0.95"/>
<polygon points="265.34,194.13 269.07,186.24 267.48,196.45 264.30,203.17" fill="url(#light)" opacity="0.95"/>
<polygon points="269.07,186.24 277.56,178.16 273.35,190.87 267.48,196.45" fill="url(#light)" opacity="0.95"/>
<polygon points="277.56,178.16 286.31,169.84 282.84,181.84 273.35,190.87" fill="url(#light)" opacity="0.95"/>
<polygon points="286.31,169.84 294.80,161.76 290.06,174.96 282.84,181.84" fill="url(#light)" opacity="0.95"/>
<polygon points="294.80,161.76 307.24,158.12 298.67,172.44 290.06,174.96" fill="url(#light)" opacity="0.95"/>
<polygon points="307.24,158.12 320.05,154.38 312.57,168.38 298.67,172.44" fill="url(#mid)" opacity="0.9"/>
<polygon points="320.05,154.38 332.50,150.74 323.17,165.29 312.57,168.38" fill="url(#mid)" opacity="0.9"/>
<polygon points="332.50,150.74 345.88,154.01 332.43,167.55 323.17,165.29" fill="url(#mid)" opacity="0.9"/>
<polygon points="345.88,154.01 359.68,157.38 347.39,171.20 332.43,167.55" fill="url(#mid)" opacity="0.9"/>
<polygon points="359.68,157.38 373.06,160.65 358.79,173.99 347.39,171.20" fill="url(#mid)" opacity="0.9"/>
<polygon points="373.06,160.65 383.38,170.26 365.92,180.63 358.79,173.99" fill="url(#mid)" opacity="0.9"/>
<polygon points="383.38,170.26 394.01,180.15 377.45,191.37 365.92,180.63" fill="url(#dark)" opacity="0.93"/>
<polygon points="394.01,180.15 404.32,189.76 386.24,199.54 377.45,191.37" fill="url(#dark)" opacity="0.93"/>
<polygon points="404.32,189.76 408.20,203.03 388.92,208.73 386.24,199.54" fill="url(#dark)" opacity="0.93"/>
<polygon points="408.20,203.03 412.19,216.71 393.25,223.56 388.92,208.73" fill="url(#dark)" opacity="0.93"/>
<polygon points="412.19,216.71 416.06,229.98 396.54,234.86 393.25,223.56" fill="url(#dark)" opacity="0.93"/>
<polygon points="416.06,229.98 412.19,244.04 393.86,244.59 396.54,234.86" fill="url(#deep)" opacity="0.96"/>
<polygon points="412.19,244.04 408.20,258.53 389.53,260.30 393.86,244.59" fill="url(#deep)" opacity="0.96"/>
<polygon points="408.20,258.53 404.32,272.59 386.24,272.27 389.53,260.30" fill="url(#deep)" opacity="0.96"/>
<polygon points="404.32,272.59 394.01,285.76 379.10,281.39 386.24,272.27" fill="url(#deep)" opacity="0.96"/>
<polygon points="394.01,285.76 383.38,299.34 367.57,296.11 379.10,281.39" fill="url(#deep)" opacity="0.96"/>
<polygon points="383.38,299.34 373.06,312.52 358.79,307.34 367.57,296.11" fill="url(#deep)" opacity="0.96"/>
<polygon points="373.06,312.52 359.68,324.55 349.53,315.66 358.79,307.34" fill="url(#deep)" opacity="0.96"/>
<polygon points="359.68,324.55 345.88,336.94 334.57,329.10 349.53,315.66" fill="url(#deep)" opacity="0.96"/>
<polygon points="345.88,336.94 332.50,348.97 323.17,339.34 334.57,329.10" fill="url(#deep)" opacity="0.96"/>
<polygon points="332.50,348.97 320.05,360.03 314.56,346.99 323.17,339.34" fill="url(#deep)" opacity="0.96"/>
<polygon points="320.05,360.03 307.24,371.42 300.66,359.35 314.56,346.99" fill="url(#deep)" opacity="0.96"/>
<polygon points="307.24,371.42 294.80,382.48 290.06,368.76 300.66,359.35" fill="url(#deep)" opacity="0.96"/>
<polygon points="294.80,382.48 286.31,392.11 284.19,375.43 290.06,368.76" fill="url(#deep)" opacity="0.96"/>
<polygon points="286.31,392.11 277.56,402.04 274.71,386.20 284.19,375.43" fill="url(#deep)" opacity="0.96"/>
<polygon points="277.56,402.04 269.07,411.68 267.48,394.40 274.71,386.20" fill="url(#deep)" opacity="0.96"/>
<polygon points="269.07,411.68 265.34,418.54 264.90,399.15 267.48,394.40" fill="url(#deep)" opacity="0.96"/>
<polygon points="265.34,418.54 261.50,425.60 260.73,406.80 264.90,399.15" fill="url(#deep)" opacity="0.96"/>
<polygon points="261.50,425.60 257.76,432.45 257.55,412.64 260.73,406.80" fill="url(#deep)" opacity="0.96"/>
<polygon points="257.76,432.45 257.18,434.97 257.15,414.38 257.55,412.64" fill="url(#deep)" opacity="0.96"/>
<polygon points="257.18,434.97 256.58,437.55 256.50,417.19 257.15,414.38" fill="url(#deep)" opacity="0.96"/>
<polygon points="256.58,437.55 256.00,440.07 256.00,419.33 256.50,417.19" fill="url(#deep)" opacity="0.96"/>
<polygon points="256.00,440.07 255.42,437.55 255.60,417.59 256.00,419.33" fill="url(#deep)" opacity="0.96"/>
<polygon points="255.42,437.55 254.82,434.97 254.95,414.78 255.60,417.59" fill="url(#deep)" opacity="0.96"/>
<polygon points="254.82,434.97 254.24,432.45 254.45,412.64 254.95,414.78" fill="url(#deep)" opacity="0.96"/>
<polygon points="254.24,432.45 250.50,425.60 251.87,407.90 254.45,412.64" fill="url(#deep)" opacity="0.96"/>
<polygon points="250.50,425.60 246.66,418.54 247.70,400.24 251.87,407.90" fill="url(#deep)" opacity="0.96"/>
<polygon points="246.66,418.54 242.93,411.68 244.52,394.40 247.70,400.24" fill="url(#deep)" opacity="0.96"/>
<polygon points="242.93,411.68 234.44,402.04 238.65,387.74 244.52,394.40" fill="url(#deep)" opacity="0.96"/>
<polygon points="234.44,402.04 225.69,392.11 229.16,376.97 238.65,387.74" fill="url(#deep)" opacity="0.96"/>
<polygon points="225.69,392.11 217.20,382.48 221.94,368.76 229.16,376.97" fill="url(#deep)" opacity="0.96"/>
<polygon points="217.20,382.48 204.76,371.42 213.33,361.11 221.94,368.76" fill="url(#dark)" opacity="0.93"/>
<polygon points="204.76,371.42 191.95,360.03 199.43,348.75 213.33,361.11" fill="url(#dark)" opacity="0.93"/>
<polygon points="191.95,360.03 179.50,348.97 188.83,339.34 199.43,348.75" fill="url(#dark)" opacity="0.93"/>
<polygon points="179.50,348.97 166.12,336.94 179.57,331.02 188.83,339.34" fill="url(#mid)" opacity="0.9"/>
<polygon points="166.12,336.94 152.32,324.55 164.61,317.58 179.57,331.02" fill="url(#mid)" opacity="0.9"/>
<polygon points="152.32,324.55 138.94,312.52 153.21,307.34 164.61,317.58" fill="url(#mid)" opacity="0.9"/>
<polygon points="138.94,312.52 128.62,299.34 146.08,298.22 153.21,307.34" fill="url(#mid)" opacity="0.9"/>
<polygon points="128.62,299.34 117.99,285.76 134.55,283.49 146.08,298.22" fill="url(#mid)" opacity="0.9"/>
<polygon points="117.99,285.76 107.68,272.59 125.76,272.27 134.55,283.49" fill="url(#light)" opacity="0.95"/>
<polygon points="107.68,272.59 103.80,258.53 123.08,262.54 125.76,272.27" fill="url(#light)" opacity="0.95"/>
<polygon points="103.80,258.53 99.81,244.04 118.75,246.83 123.08,262.54" fill="url(#light)" opacity="0.95"/>
<polygon points="99.81,244.04 95.94,229.98 115.46,234.86 118.75,246.83" fill="url(#light)" opacity="0.95"/>
<polygon points="95.94,229.98 99.81,216.71 118.14,225.68 115.46,234.86" fill="url(#light)" opacity="0.95"/>
<polygon points="99.81,216.71 103.80,203.03 122.47,210.85 118.14,225.68" fill="url(#light)" opacity="0.95"/>
<polygon points="103.80,203.03 107.68,189.76 125.76,199.54 122.47,210.85" fill="url(#light)" opacity="0.95"/>
<polygon points="107.68,189.76 117.99,180.15 132.90,192.90 125.76,199.54" fill="url(#light)" opacity="0.95"/>
<polygon points="117.99,180.15 128.62,170.26 144.43,182.17 132.90,192.90" fill="url(#light)" opacity="0.95"/>
<polygon points="128.62,170.26 138.94,160.65 153.21,173.99 144.43,182.17" fill="url(#light)" opacity="0.95"/>
<polygon points="138.94,160.65 152.32,157.38 162.47,171.73 153.21,173.99" fill="url(#flash)" opacity="0.98"/>
<polygon points="152.32,157.38 166.12,154.01 177.43,168.07 162.47,171.73" fill="url(#flash)" opacity="0.98"/>
<polygon points="166.12,154.01 179.50,150.74 188.83,165.29 177.43,168.07" fill="url(#flash)" opacity="0.98"/>
<polygon points="179.50,150.74 191.95,154.38 197.44,167.80 188.83,165.29" fill="url(#flash)" opacity="0.98"/>
<polygon points="191.95,154.38 204.76,158.12 211.34,171.86 197.44,167.80" fill="url(#flash)" opacity="0.98"/>
<polygon points="204.76,158.12 217.20,161.76 221.94,174.96 211.34,171.86" fill="url(#flash)" opacity="0.98"/>
<polygon points="217.20,161.76 225.69,169.84 227.81,180.55 221.94,174.96" fill="url(#flash)" opacity="0.98"/>
<polygon points="225.69,169.84 234.44,178.16 237.29,189.58 227.81,180.55" fill="url(#flash)" opacity="0.98"/>
<polygon points="234.44,178.16 242.93,186.24 244.52,196.45 237.29,189.58" fill="url(#light)" opacity="0.95"/>
<polygon points="242.93,186.24 246.66,194.13 247.10,201.91 244.52,196.45" fill="url(#light)" opacity="0.95"/>
<polygon points="246.66,194.13 250.50,202.26 251.27,210.73 247.10,201.91" fill="url(#light)" opacity="0.95"/>
<polygon points="250.50,202.26 254.24,210.16 254.45,217.45 251.27,210.73" fill="url(#light)" opacity="0.95"/>
<polygon points="254.24,210.16 254.82,213.40 254.85,219.70 254.45,217.45" fill="url(#light)" opacity="0.95"/>
<polygon points="254.82,213.40 255.42,216.74 255.50,223.32 254.85,219.70" fill="url(#light)" opacity="0.95"/>
<polygon points="255.42,216.74 256.00,219.98 256.00,226.08 255.50,223.32" fill="url(#light)" opacity="0.95"/>
<polygon points="256.00,226.08 256.51,223.23 256.34,230.89 256.00,232.79" fill="url(#light)" opacity="0.95"/>
<polygon points="256.51,223.23 257.04,220.30 256.89,227.82 256.34,230.89" fill="url(#light)" opacity="0.95"/>
<polygon points="257.04,220.30 257.55,217.45 257.31,225.48 256.89,227.82" fill="url(#light)" opacity="0.95"/>
<polygon points="257.55,217.45 260.83,210.52 259.50,220.86 257.31,225.48" fill="url(#light)" opacity="0.95"/>
<polygon points="260.83,210.52 264.20,203.38 263.03,213.38 259.50,220.86" fill="url(#light)" opacity="0.95"/>
<polygon points="264.20,203.38 267.48,196.45 265.73,207.69 263.03,213.38" fill="url(#light)" opacity="0.95"/>
<polygon points="267.48,196.45 274.93,189.36 270.70,202.96 265.73,207.69" fill="url(#light)" opacity="0.95"/>
<polygon points="274.93,189.36 282.61,182.05 278.74,195.31 270.70,202.96" fill="url(#light)" opacity="0.95"/>
<polygon points="282.61,182.05 290.06,174.96 284.86,189.48 278.74,195.31" fill="url(#light)" opacity="0.95"/>
<polygon points="290.06,174.96 300.99,171.77 292.15,187.35 284.86,189.48" fill="url(#light)" opacity="0.95"/>
<polygon points="300.99,171.77 312.24,168.48 303.93,183.91 292.15,187.35" fill="url(#mid)" opacity="0.9"/>
<polygon points="312.24,168.48 323.17,165.29 312.90,181.28 303.93,183.91" fill="url(#mid)" opacity="0.9"/>
<polygon points="323.17,165.29 334.92,168.16 320.75,183.20 312.90,181.28" fill="url(#mid)" opacity="0.9"/>
<polygon points="334.92,168.16 347.03,171.12 333.43,186.30 320.75,183.20" fill="url(#mid)" opacity="0.9"/>
<polygon points="347.03,171.12 358.79,173.99 343.08,188.66 333.43,186.30" fill="url(#mid)" opacity="0.9"/>
<polygon points="358.79,173.99 367.85,182.42 349.13,194.29 343.08,188.66" fill="url(#mid)" opacity="0.9"/>
<polygon points="367.85,182.42 377.18,191.11 358.90,203.38 349.13,194.29" fill="url(#dark)" opacity="0.93"/>
<polygon points="377.18,191.11 386.24,199.54 366.34,210.31 358.90,203.38" fill="url(#dark)" opacity="0.93"/>
<polygon points="386.24,199.54 389.64,211.20 368.61,218.09 366.34,210.31" fill="url(#dark)" opacity="0.93"/>
<polygon points="389.64,211.20 393.14,223.21 372.28,230.66 368.61,218.09" fill="url(#dark)" opacity="0.93"/>
<polygon points="393.14,223.21 396.54,234.86 375.07,240.23 372.28,230.66" fill="url(#dark)" opacity="0.93"/>
<polygon points="396.54,234.86 393.14,247.21 372.80,248.47 375.07,240.23" fill="url(#dark)" opacity="0.93"/>
<polygon points="393.14,247.21 389.64,259.93 369.13,261.78 372.80,248.47" fill="url(#deep)" opacity="0.96"/>
<polygon points="389.64,259.93 386.24,272.27 366.34,271.92 369.13,261.78" fill="url(#deep)" opacity="0.96"/>
<polygon points="386.24,272.27 377.18,283.84 360.29,279.65 366.34,271.92" fill="url(#deep)" opacity="0.96"/>
<polygon points="377.18,283.84 367.85,295.76 350.53,292.12 360.29,279.65" fill="url(#deep)" opacity="0.96"/>
<polygon points="367.85,295.76 358.79,307.34 343.08,301.63 350.53,292.12" fill="url(#deep)" opacity="0.96"/>
<polygon points="358.79,307.34 347.03,317.90 335.24,308.68 343.08,301.63" fill="url(#deep)" opacity="0.96"/>
<polygon points="347.03,317.90 334.92,328.78 322.56,320.07 335.24,308.68" fill="url(#deep)" opacity="0.96"/>
<polygon points="334.92,328.78 323.17,339.34 312.90,328.75 322.56,320.07" fill="url(#deep)" opacity="0.96"/>
<polygon points="323.17,339.34 312.24,349.05 305.61,335.23 312.90,328.75" fill="url(#deep)" opacity="0.96"/>
<polygon points="312.24,349.05 300.99,359.05 293.83,345.70 305.61,335.23" fill="url(#deep)" opacity="0.96"/>
<polygon points="300.99,359.05 290.06,368.76 284.86,353.67 293.83,345.70" fill="url(#deep)" opacity="0.96"/>
<polygon points="290.06,368.76 282.61,377.22 279.89,359.32 284.86,353.67" fill="url(#deep)" opacity="0.96"/>
<polygon points="282.61,377.22 274.93,385.94 271.85,368.45 279.89,359.32" fill="url(#deep)" opacity="0.96"/>
<polygon points="274.93,385.94 267.48,394.40 265.73,375.40 271.85,368.45" fill="url(#deep)" opacity="0.96"/>
<polygon points="267.48,394.40 264.20,400.42 263.54,379.41 265.73,375.40" fill="url(#deep)" opacity="0.96"/>
<polygon points="264.20,400.42 260.83,406.62 260.00,385.90 263.54,379.41" fill="url(#deep)" opacity="0.96"/>
<polygon points="260.83,406.62 257.55,412.64 257.31,390.85 260.00,385.90" fill="url(#deep)" opacity="0.96"/>
<polygon points="257.55,412.64 257.04,414.85 256.97,392.32 257.31,390.85" fill="url(#deep)" opacity="0.96"/>
<polygon points="257.04,414.85 256.51,417.12 256.42,394.70 256.97,392.32" fill="url(#deep)" opacity="0.96"/>
<polygon points="256.51,417.12 256.00,419.33 256.00,396.51 256.42,394.70" fill="url(#deep)" opacity="0.96"/>
<polygon points="256.00,419.33 255.49,417.12 255.66,395.04 256.00,396.51" fill="url(#deep)" opacity="0.96"/>
<polygon points="255.49,417.12 254.96,414.85 255.11,392.66 255.66,395.04" fill="url(#deep)" opacity="0.96"/>
<polygon points="254.96,414.85 254.45,412.64 254.69,390.85 255.11,392.66" fill="url(#deep)" opacity="0.96"/>
<polygon points="254.45,412.64 251.17,406.62 252.50,386.83 254.69,390.85" fill="url(#deep)" opacity="0.96"/>
<polygon points="251.17,406.62 247.80,400.42 248.97,380.34 252.50,386.83" fill="url(#deep)" opacity="0.96"/>
<polygon points="247.80,400.42 244.52,394.40 246.27,375.40 248.97,380.34" fill="url(#deep)" opacity="0.96"/>
<polygon points="244.52,394.40 237.07,385.94 241.30,369.75 246.27,375.40" fill="url(#deep)" opacity="0.96"/>
<polygon points="237.07,385.94 229.39,377.22 233.26,360.62 241.30,369.75" fill="url(#deep)" opacity="0.96"/>
<polygon points="229.39,377.22 221.94,368.76 227.14,353.67 233.26,360.62" fill="url(#dark)" opacity="0.93"/>
<polygon points="221.94,368.76 211.01,359.05 219.85,347.19 227.14,353.67" fill="url(#dark)" opacity="0.93"/>
<polygon points="211.01,359.05 199.76,349.05 208.07,336.72 219.85,347.19" fill="url(#dark)" opacity="0.93"/>
<polygon points="199.76,349.05 188.83,339.34 199.10,328.75 208.07,336.72" fill="url(#mid)" opacity="0.9"/>
<polygon points="188.83,339.34 177.08,328.78 191.25,321.70 199.10,328.75" fill="url(#mid)" opacity="0.9"/>
<polygon points="177.08,328.78 164.97,317.90 178.57,310.31 191.25,321.70" fill="url(#mid)" opacity="0.9"/>
<polygon points="164.97,317.90 153.21,307.34 168.92,301.63 178.57,310.31" fill="url(#mid)" opacity="0.9"/>
<polygon points="153.21,307.34 144.15,295.76 162.87,293.91 168.92,301.63" fill="url(#mid)" opacity="0.9"/>
<polygon points="144.15,295.76 134.82,283.84 153.10,281.43 162.87,293.91" fill="url(#light)" opacity="0.95"/>
<polygon points="134.82,283.84 125.76,272.27 145.66,271.92 153.10,281.43" fill="url(#light)" opacity="0.95"/>
<polygon points="125.76,272.27 122.36,259.93 143.39,263.68 145.66,271.92" fill="url(#light)" opacity="0.95"/>
<polygon points="122.36,259.93 118.86,247.21 139.72,250.37 143.39,263.68" fill="url(#light)" opacity="0.95"/>
<polygon points="118.86,247.21 115.46,234.86 136.93,240.23 139.72,250.37" fill="url(#light)" opacity="0.95"/>
<polygon points="115.46,234.86 118.86,223.21 139.20,232.45 136.93,240.23" fill="url(#light)" opacity="0.95"/>
<polygon points="118.86,223.21 122.36,211.20 142.87,219.88 139.20,232.45" fill="url(#light)" opacity="0.95"/>
<polygon points="122.36,211.20 125.76,199.54 145.66,210.31 142.87,219.88" fill="url(#light)" opacity="0.95"/>
<polygon points="125.76,199.54 134.82,191.11 151.71,204.68 145.66,210.31" fill="url(#light)" opacity="0.95"/>
<polygon points="134.82,191.11 144.15,182.42 161.47,195.58 151.71,204.68" fill="url(#light)" opacity="0.95"/>
<polygon points="144.15,182.42 153.21,173.99 168.92,188.66 161.47,195.58" fill="url(#flash)" opacity="0.98"/>
<polygon points="153.21,173.99 164.97,171.12 176.76,186.74 168.92,188.66" fill="url(#flash)" opacity="0.98"/>
<polygon points="164.97,171.12 177.08,168.16 189.44,183.64 176.76,186.74" fill="url(#flash)" opacity="0.98"/>
<polygon points="177.08,168.16 188.83,165.29 199.10,181.28 189.44,183.64" fill="url(#flash)" opacity="0.98"/>
<polygon points="188.83,165.29 199.76,168.48 206.39,183.42 199.10,181.28" fill="url(#flash)" opacity="0.98"/>
<polygon points="199.76,168.48 211.01,171.77 218.17,186.86 206.39,183.42" fill="url(#flash)" opacity="0.98"/>
<polygon points="211.01,171.77 221.94,174.96 227.14,189.48 218.17,186.86" fill="url(#flash)" opacity="0.98"/>
<polygon points="221.94,174.96 229.39,182.05 232.11,194.21 227.14,189.48" fill="url(#flash)" opacity="0.98"/>
<polygon points="229.39,182.05 237.07,189.36 240.15,201.86 232.11,194.21" fill="url(#flash)" opacity="0.98"/>
<polygon points="237.07,189.36 244.52,196.45 246.27,207.69 240.15,201.86" fill="url(#light)" opacity="0.95"/>
<polygon points="244.52,196.45 247.80,203.38 248.46,212.32 246.27,207.69" fill="url(#light)" opacity="0.95"/>
<polygon points="247.80,203.38 251.17,210.52 252.00,219.79 248.46,212.32" fill="url(#light)" opacity="0.95"/>
<polygon points="251.17,210.52 254.45,217.45 254.69,225.48 252.00,219.79" fill="url(#light)" opacity="0.95"/>
<polygon points="254.45,217.45 254.96,220.30 255.03,227.38 254.69,225.48" fill="url(#light)" opacity="0.95"/>
<polygon points="254.96,220.30 255.49,223.23 255.58,230.45 255.03,227.38" fill="url(#light)" opacity="0.95"/>
<polygon points="255.49,223.23 256.00,226.08 256.00,232.79 255.58,230.45" fill="url(#light)" opacity="0.95"/>
<polygon points="256.00,232.79 256.43,230.38 256.28,237.94 256.00,239.50" fill="url(#light)" opacity="0.95"/>
<polygon points="256.43,230.38 256.88,227.89 256.73,235.43 256.28,237.94" fill="url(#light)" opacity="0.95"/>
<polygon points="256.88,227.89 257.31,225.48 257.08,233.51 256.73,235.43" fill="url(#light)" opacity="0.95"/>
<polygon points="257.31,225.48 260.09,219.61 258.87,229.72 257.08,233.51" fill="url(#light)" opacity="0.95"/>
<polygon points="260.09,219.61 262.95,213.56 261.77,223.59 258.87,229.72" fill="url(#light)" opacity="0.95"/>
<polygon points="262.95,213.56 265.73,207.69 263.97,218.93 261.77,223.59" fill="url(#light)" opacity="0.95"/>
<polygon points="265.73,207.69 272.04,201.68 268.05,215.05 263.97,218.93" fill="url(#light)" opacity="0.95"/>
<polygon points="272.04,201.68 278.55,195.49 274.64,208.78 268.05,215.05" fill="url(#light)" opacity="0.95"/>
<polygon points="278.55,195.49 284.86,189.48 279.66,204.00 274.64,208.78" fill="url(#light)" opacity="0.95"/>
<polygon points="284.86,189.48 294.11,186.77 285.63,202.25 279.66,204.00" fill="url(#light)" opacity="0.95"/>
<polygon points="294.11,186.77 303.65,183.99 295.29,199.43 285.63,202.25" fill="url(#mid)" opacity="0.9"/>
<polygon points="303.65,183.99 312.90,181.28 302.64,197.28 295.29,199.43" fill="url(#mid)" opacity="0.9"/>
<polygon points="312.90,181.28 322.86,183.72 309.07,198.85 302.64,197.28" fill="url(#mid)" opacity="0.9"/>
<polygon points="322.86,183.72 333.12,186.22 319.46,201.39 309.07,198.85" fill="url(#mid)" opacity="0.9"/>
<polygon points="333.12,186.22 343.08,188.66 327.38,203.33 319.46,201.39" fill="url(#mid)" opacity="0.9"/>
<polygon points="343.08,188.66 350.76,195.80 332.34,207.94 327.38,203.33" fill="url(#mid)" opacity="0.9"/>
<polygon points="350.76,195.80 358.66,203.16 340.34,215.39 332.34,207.94" fill="url(#mid)" opacity="0.9"/>
<polygon points="358.66,203.16 366.34,210.31 346.44,221.07 340.34,215.39" fill="url(#dark)" opacity="0.93"/>
<polygon points="366.34,210.31 369.22,220.18 348.30,227.45 346.44,221.07" fill="url(#dark)" opacity="0.93"/>
<polygon points="369.22,220.18 372.19,230.36 351.31,237.75 348.30,227.45" fill="url(#dark)" opacity="0.93"/>
<polygon points="372.19,230.36 375.07,240.23 353.60,245.60 351.31,237.75" fill="url(#dark)" opacity="0.93"/>
<polygon points="375.07,240.23 372.19,250.69 351.74,252.35 353.60,245.60" fill="url(#dark)" opacity="0.93"/>
<polygon points="372.19,250.69 369.22,261.46 348.73,263.26 351.74,252.35" fill="url(#dark)" opacity="0.93"/>
<polygon points="369.22,261.46 366.34,271.92 346.44,271.58 348.73,263.26" fill="url(#deep)" opacity="0.96"/>
<polygon points="366.34,271.92 358.66,281.73 341.49,277.91 346.44,271.58" fill="url(#deep)" opacity="0.96"/>
<polygon points="358.66,281.73 350.76,291.83 333.48,288.13 341.49,277.91" fill="url(#deep)" opacity="0.96"/>
<polygon points="350.76,291.83 343.08,301.63 327.38,295.93 333.48,288.13" fill="url(#deep)" opacity="0.96"/>
<polygon points="343.08,301.63 333.12,310.58 320.95,301.71 327.38,295.93" fill="url(#deep)" opacity="0.96"/>
<polygon points="333.12,310.58 322.86,319.80 310.56,311.04 320.95,301.71" fill="url(#deep)" opacity="0.96"/>
<polygon points="322.86,319.80 312.90,328.75 302.64,318.15 310.56,311.04" fill="url(#deep)" opacity="0.96"/>
<polygon points="312.90,328.75 303.65,336.97 296.67,323.46 302.64,318.15" fill="url(#deep)" opacity="0.96"/>
<polygon points="303.65,336.97 294.11,345.45 287.01,332.05 296.67,323.46" fill="url(#deep)" opacity="0.96"/>
<polygon points="294.11,345.45 284.86,353.67 279.66,338.58 287.01,332.05" fill="url(#deep)" opacity="0.96"/>
<polygon points="284.86,353.67 278.55,360.84 275.58,343.21 279.66,338.58" fill="url(#deep)" opacity="0.96"/>
<polygon points="278.55,360.84 272.04,368.23 268.99,350.69 275.58,343.21" fill="url(#deep)" opacity="0.96"/>
<polygon points="272.04,368.23 265.73,375.40 263.97,356.39 268.99,350.69" fill="url(#deep)" opacity="0.96"/>
<polygon points="265.73,375.40 262.95,380.50 262.18,359.68 263.97,356.39" fill="url(#deep)" opacity="0.96"/>
<polygon points="262.95,380.50 260.09,385.75 259.28,365.00 262.18,359.68" fill="url(#deep)" opacity="0.96"/>
<polygon points="260.09,385.75 257.31,390.85 257.08,369.06 259.28,365.00" fill="url(#deep)" opacity="0.96"/>
<polygon points="257.31,390.85 256.88,392.72 256.80,370.26 257.08,369.06" fill="url(#deep)" opacity="0.96"/>
<polygon points="256.88,392.72 256.43,394.64 256.34,372.21 256.80,370.26" fill="url(#deep)" opacity="0.96"/>
<polygon points="256.43,394.64 256.00,396.51 256.00,373.70 256.34,372.21" fill="url(#deep)" opacity="0.96"/>
<polygon points="256.00,396.51 255.57,394.64 255.72,372.49 256.00,373.70" fill="url(#deep)" opacity="0.96"/>
<polygon points="255.57,394.64 255.12,392.72 255.27,370.54 255.72,372.49" fill="url(#deep)" opacity="0.96"/>
<polygon points="255.12,392.72 254.69,390.85 254.92,369.06 255.27,370.54" fill="url(#deep)" opacity="0.96"/>
<polygon points="254.69,390.85 251.91,385.75 253.13,365.76 254.92,369.06" fill="url(#deep)" opacity="0.96"/>
<polygon points="251.91,385.75 249.05,380.50 250.23,360.44 253.13,365.76" fill="url(#deep)" opacity="0.96"/>
<polygon points="249.05,380.50 246.27,375.40 248.03,356.39 250.23,360.44" fill="url(#deep)" opacity="0.96"/>
<polygon points="246.27,375.40 239.96,368.23 243.95,351.76 248.03,356.39" fill="url(#deep)" opacity="0.96"/>
<polygon points="239.96,368.23 233.45,360.84 237.36,344.28 243.95,351.76" fill="url(#dark)" opacity="0.93"/>
<polygon points="233.45,360.84 227.14,353.67 232.34,338.58 237.36,344.28" fill="url(#dark)" opacity="0.93"/>
<polygon points="227.14,353.67 217.89,345.45 226.37,333.27 232.34,338.58" fill="url(#dark)" opacity="0.93"/>
<polygon points="217.89,345.45 208.35,336.97 216.71,324.69 226.37,333.27" fill="url(#dark)" opacity="0.93"/>
<polygon points="208.35,336.97 199.10,328.75 209.36,318.15 216.71,324.69" fill="url(#mid)" opacity="0.9"/>
<polygon points="199.10,328.75 189.14,319.80 202.93,312.37 209.36,318.15" fill="url(#mid)" opacity="0.9"/>
<polygon points="189.14,319.80 178.88,310.58 192.54,303.04 202.93,312.37" fill="url(#mid)" opacity="0.9"/>
<polygon points="178.88,310.58 168.92,301.63 184.62,295.93 192.54,303.04" fill="url(#mid)" opacity="0.9"/>
<polygon points="168.92,301.63 161.24,291.83 179.66,289.60 184.62,295.93" fill="url(#light)" opacity="0.95"/>
<polygon points="161.24,291.83 153.34,281.73 171.66,279.37 179.66,289.60" fill="url(#light)" opacity="0.95"/>
<polygon points="153.34,281.73 145.66,271.92 165.56,271.58 171.66,279.37" fill="url(#light)" opacity="0.95"/>
<polygon points="145.66,271.92 142.78,261.46 163.70,264.82 165.56,271.58" fill="url(#light)" opacity="0.95"/>
<polygon points="142.78,261.46 139.81,250.69 160.69,253.91 163.70,264.82" fill="url(#light)" opacity="0.95"/>
<polygon points="139.81,250.69 136.93,240.23 158.40,245.60 160.69,253.91" fill="url(#light)" opacity="0.95"/>
<polygon points="136.93,240.23 139.81,230.36 160.26,239.22 158.40,245.60" fill="url(#light)" opacity="0.95"/>
<polygon points="139.81,230.36 142.78,220.18 163.27,228.92 160.26,239.22" fill="url(#light)" opacity="0.95"/>
<polygon points="142.78,220.18 145.66,210.31 165.56,221.07 163.27,228.92" fill="url(#light)" opacity="0.95"/>
<polygon points="145.66,210.31 153.34,203.16 170.51,216.46 165.56,221.07" fill="url(#flash)" opacity="0.98"/>
<polygon points="153.34,203.16 161.24,195.80 178.52,209.00 170.51,216.46" fill="url(#flash)" opacity="0.98"/>
<polygon points="161.24,195.80 168.92,188.66 184.62,203.33 178.52,209.00" fill="url(#flash)" opacity="0.98"/>
<polygon points="168.92,188.66 178.88,186.22 191.05,201.75 184.62,203.33" fill="url(#flash)" opacity="0.98"/>
<polygon points="178.88,186.22 189.14,183.72 201.44,199.22 191.05,201.75" fill="url(#flash)" opacity="0.98"/>
<polygon points="189.14,183.72 199.10,181.28 209.36,197.28 201.44,199.22" fill="url(#flash)" opacity="0.98"/>
<polygon points="199.10,181.28 208.35,183.99 215.33,199.03 209.36,197.28" fill="url(#flash)" opacity="0.98"/>
<polygon points="208.35,183.99 217.89,186.77 224.99,201.85 215.33,199.03" fill="url(#flash)" opacity="0.98"/>
<polygon points="217.89,186.77 227.14,189.48 232.34,204.00 224.99,201.85" fill="url(#flash)" opacity="0.98"/>
<polygon points="227.14,189.48 233.45,195.49 236.42,207.88 232.34,204.00" fill="url(#flash)" opacity="0.98"/>
<polygon points="233.45,195.49 239.96,201.68 243.01,214.15 236.42,207.88" fill="url(#flash)" opacity="0.98"/>
<polygon points="239.96,201.68 246.27,207.69 248.03,218.93 243.01,214.15" fill="url(#flash)" opacity="0.98"/>
<polygon points="246.27,207.69 249.05,213.56 249.82,222.72 248.03,218.93" fill="url(#light)" opacity="0.95"/>
<polygon points="249.05,213.56 251.91,219.61 252.72,228.84 249.82,222.72" fill="url(#light)" opacity="0.95"/>
<polygon points="251.91,219.61 254.69,225.48 254.92,233.51 252.72,228.84" fill="url(#light)" opacity="0.95"/>
<polygon points="254.69,225.48 255.12,227.89 255.20,235.07 254.92,233.51" fill="url(#light)" opacity="0.95"/>
<polygon points="255.12,227.89 255.57,230.38 255.66,237.58 255.20,235.07" fill="url(#light)" opacity="0.95"/>
<polygon points="255.57,230.38 256.00,232.79 256.00,239.50 255.66,237.58" fill="url(#light)" opacity="0.95"/>
<polygon points="256.00,239.50 256.35,237.52 256.22,244.35 256.00,245.60" fill="url(#light)" opacity="0.95"/>
<polygon points="256.35,237.52 256.72,235.49 256.59,242.34 256.22,244.35" fill="url(#light)" opacity="0.95"/>
<polygon points="256.72,235.49 257.08,233.51 256.86,240.81 256.59,242.34" fill="url(#light)" opacity="0.95"/>
<polygon points="257.08,233.51 259.35,228.70 258.29,237.77 256.86,240.81" fill="url(#light)" opacity="0.95"/>
<polygon points="259.35,228.70 261.70,223.74 260.61,232.87 258.29,237.77" fill="url(#light)" opacity="0.95"/>
<polygon points="261.70,223.74 263.97,218.93 262.38,229.14 260.61,232.87" fill="url(#light)" opacity="0.95"/>
<polygon points="263.97,218.93 269.15,214.00 265.64,226.04 262.38,229.14" fill="url(#light)" opacity="0.95"/>
<polygon points="269.15,214.00 274.48,208.92 270.91,221.02 265.64,226.04" fill="url(#light)" opacity="0.95"/>
<polygon points="274.48,208.92 279.66,204.00 274.92,217.20 270.91,221.02" fill="url(#light)" opacity="0.95"/>
<polygon points="279.66,204.00 287.24,201.78 279.71,215.80 274.92,217.20" fill="url(#light)" opacity="0.95"/>
<polygon points="287.24,201.78 295.06,199.50 287.43,213.55 279.71,215.80" fill="url(#light)" opacity="0.95"/>
<polygon points="295.06,199.50 302.64,197.28 293.31,211.83 287.43,213.55" fill="url(#mid)" opacity="0.9"/>
<polygon points="302.64,197.28 310.81,199.28 298.46,213.08 293.31,211.83" fill="url(#mid)" opacity="0.9"/>
<polygon points="310.81,199.28 319.22,201.33 306.77,215.11 298.46,213.08" fill="url(#mid)" opacity="0.9"/>
<polygon points="319.22,201.33 327.38,203.33 313.10,216.66 306.77,215.11" fill="url(#mid)" opacity="0.9"/>
<polygon points="327.38,203.33 333.67,209.18 317.07,220.35 313.10,216.66" fill="url(#mid)" opacity="0.9"/>
<polygon points="333.67,209.18 340.15,215.22 323.47,226.31 317.07,220.35" fill="url(#mid)" opacity="0.9"/>
<polygon points="340.15,215.22 346.44,221.07 328.35,230.86 323.47,226.31" fill="url(#dark)" opacity="0.93"/>
<polygon points="346.44,221.07 348.80,229.17 329.84,235.96 328.35,230.86" fill="url(#dark)" opacity="0.93"/>
<polygon points="348.80,229.17 351.24,237.51 332.25,244.20 329.84,235.96" fill="url(#dark)" opacity="0.93"/>
<polygon points="351.24,237.51 353.60,245.60 334.08,250.48 332.25,244.20" fill="url(#dark)" opacity="0.93"/>
<polygon points="353.60,245.60 351.24,254.17 332.59,255.88 334.08,250.48" fill="url(#dark)" opacity="0.93"/>
<polygon points="351.24,254.17 348.80,263.00 330.19,264.61 332.59,255.88" fill="url(#dark)" opacity="0.93"/>
<polygon points="348.80,263.00 346.44,271.58 328.35,271.26 330.19,264.61" fill="url(#dark)" opacity="0.93"/>
<polygon points="346.44,271.58 340.15,279.61 324.39,276.33 328.35,271.26" fill="url(#deep)" opacity="0.96"/>
<polygon points="340.15,279.61 333.67,287.89 317.98,284.51 324.39,276.33" fill="url(#deep)" opacity="0.96"/>
<polygon points="333.67,287.89 327.38,295.93 313.10,290.74 317.98,284.51" fill="url(#deep)" opacity="0.96"/>
<polygon points="327.38,295.93 319.22,303.26 307.96,295.36 313.10,290.74" fill="url(#deep)" opacity="0.96"/>
<polygon points="319.22,303.26 310.81,310.82 299.65,302.83 307.96,295.36" fill="url(#deep)" opacity="0.96"/>
<polygon points="310.81,310.82 302.64,318.15 293.31,308.52 299.65,302.83" fill="url(#deep)" opacity="0.96"/>
<polygon points="302.64,318.15 295.06,324.89 288.53,312.77 293.31,308.52" fill="url(#deep)" opacity="0.96"/>
<polygon points="295.06,324.89 287.24,331.84 280.81,319.64 288.53,312.77" fill="url(#deep)" opacity="0.96"/>
<polygon points="287.24,331.84 279.66,338.58 274.92,324.87 280.81,319.64" fill="url(#deep)" opacity="0.96"/>
<polygon points="279.66,338.58 274.48,344.46 271.66,328.57 274.92,324.87" fill="url(#deep)" opacity="0.96"/>
<polygon points="274.48,344.46 269.15,350.51 266.39,334.55 271.66,328.57" fill="url(#deep)" opacity="0.96"/>
<polygon points="269.15,350.51 263.97,356.39 262.38,339.11 266.39,334.55" fill="url(#deep)" opacity="0.96"/>
<polygon points="263.97,356.39 261.70,360.57 260.94,341.75 262.38,339.11" fill="url(#deep)" opacity="0.96"/>
<polygon points="261.70,360.57 259.35,364.88 258.63,346.00 260.94,341.75" fill="url(#deep)" opacity="0.96"/>
<polygon points="259.35,364.88 257.08,369.06 256.86,349.25 258.63,346.00" fill="url(#deep)" opacity="0.96"/>
<polygon points="257.08,369.06 256.72,370.59 256.64,350.21 256.86,349.25" fill="url(#deep)" opacity="0.96"/>
<polygon points="256.72,370.59 256.35,372.17 256.28,351.77 256.64,350.21" fill="url(#deep)" opacity="0.96"/>
<polygon points="256.35,372.17 256.00,373.70 256.00,352.96 256.28,351.77" fill="url(#deep)" opacity="0.96"/>
<polygon points="256.00,373.70 255.65,372.17 255.78,351.99 256.00,352.96" fill="url(#deep)" opacity="0.96"/>
<polygon points="255.65,372.17 255.28,370.59 255.41,350.43 255.78,351.99" fill="url(#deep)" opacity="0.96"/>
<polygon points="255.28,370.59 254.92,369.06 255.14,349.25 255.41,350.43" fill="url(#deep)" opacity="0.96"/>
<polygon points="254.92,369.06 252.65,364.88 253.71,346.61 255.14,349.25" fill="url(#deep)" opacity="0.96"/>
<polygon points="252.65,364.88 250.30,360.57 251.39,342.36 253.71,346.61" fill="url(#deep)" opacity="0.96"/>
<polygon points="250.30,360.57 248.03,356.39 249.62,339.11 251.39,342.36" fill="url(#deep)" opacity="0.96"/>
<polygon points="248.03,356.39 242.85,350.51 246.36,335.41 249.62,339.11" fill="url(#dark)" opacity="0.93"/>
<polygon points="242.85,350.51 237.52,344.46 241.09,329.43 246.36,335.41" fill="url(#dark)" opacity="0.93"/>
<polygon points="237.52,344.46 232.34,338.58 237.08,324.87 241.09,329.43" fill="url(#dark)" opacity="0.93"/>
<polygon points="232.34,338.58 224.76,331.84 232.29,320.62 237.08,324.87" fill="url(#dark)" opacity="0.93"/>
<polygon points="224.76,331.84 216.94,324.89 224.57,313.75 232.29,320.62" fill="url(#mid)" opacity="0.9"/>
<polygon points="216.94,324.89 209.36,318.15 218.69,308.52 224.57,313.75" fill="url(#mid)" opacity="0.9"/>
<polygon points="209.36,318.15 201.19,310.82 213.54,303.90 218.69,308.52" fill="url(#mid)" opacity="0.9"/>
<polygon points="201.19,310.82 192.78,303.26 205.23,296.43 213.54,303.90" fill="url(#mid)" opacity="0.9"/>
<polygon points="192.78,303.26 184.62,295.93 198.90,290.74 205.23,296.43" fill="url(#light)" opacity="0.95"/>
<polygon points="184.62,295.93 178.33,287.89 194.93,285.68 198.90,290.74" fill="url(#light)" opacity="0.95"/>
<polygon points="178.33,287.89 171.85,279.61 188.53,277.49 194.93,285.68" fill="url(#light)" opacity="0.95"/>
<polygon points="171.85,279.61 165.56,271.58 183.65,271.26 188.53,277.49" fill="url(#light)" opacity="0.95"/>
<polygon points="165.56,271.58 163.20,263.00 182.16,265.86 183.65,271.26" fill="url(#light)" opacity="0.95"/>
<polygon points="163.20,263.00 160.76,254.17 179.75,257.13 182.16,265.86" fill="url(#light)" opacity="0.95"/>
<polygon points="160.76,254.17 158.40,245.60 177.92,250.48 179.75,257.13" fill="url(#light)" opacity="0.95"/>
<polygon points="158.40,245.60 160.76,237.51 179.41,245.38 177.92,250.48" fill="url(#light)" opacity="0.95"/>
<polygon points="160.76,237.51 163.20,229.17 181.81,237.14 179.41,245.38" fill="url(#light)" opacity="0.95"/>
<polygon points="163.20,229.17 165.56,221.07 183.65,230.86 181.81,237.14" fill="url(#flash)" opacity="0.98"/>
<polygon points="165.56,221.07 171.85,215.22 187.61,227.17 183.65,230.86" fill="url(#flash)" opacity="0.98"/>
<polygon points="171.85,215.22 178.33,209.18 194.02,221.20 187.61,227.17" fill="url(#flash)" opacity="0.98"/>
<polygon points="178.33,209.18 184.62,203.33 198.90,216.66 194.02,221.20" fill="url(#flash)" opacity="0.98"/>
<polygon points="184.62,203.33 192.78,201.33 204.04,215.40 198.90,216.66" fill="url(#flash)" opacity="0.98"/>
<polygon points="192.78,201.33 201.19,199.28 212.35,213.37 204.04,215.40" fill="url(#flash)" opacity="0.98"/>
<polygon points="201.19,199.28 209.36,197.28 218.69,211.83 212.35,213.37" fill="url(#flash)" opacity="0.98"/>
<polygon points="209.36,197.28 216.94,199.50 223.47,213.22 218.69,211.83" fill="url(#flash)" opacity="0.98"/>
<polygon points="216.94,199.50 224.76,201.78 231.19,215.48 223.47,213.22" fill="url(#flash)" opacity="0.98"/>
<polygon points="224.76,201.78 232.34,204.00 237.08,217.20 231.19,215.48" fill="url(#flash)" opacity="0.98"/>
<polygon points="232.34,204.00 237.52,208.92 240.34,220.30 237.08,217.20" fill="url(#flash)" opacity="0.98"/>
<polygon points="237.52,208.92 242.85,214.00 245.61,225.32 240.34,220.30" fill="url(#flash)" opacity="0.98"/>
<polygon points="242.85,214.00 248.03,218.93 249.62,229.14 245.61,225.32" fill="url(#flash)" opacity="0.98"/>
<polygon points="248.03,218.93 250.30,223.74 251.06,232.17 249.62,229.14" fill="url(#light)" opacity="0.95"/>
<polygon points="250.30,223.74 252.65,228.70 253.37,237.07 251.06,232.17" fill="url(#light)" opacity="0.95"/>
<polygon points="252.65,228.70 254.92,233.51 255.14,240.81 253.37,237.07" fill="url(#light)" opacity="0.95"/>
<polygon points="254.92,233.51 255.28,235.49 255.36,242.05 255.14,240.81" fill="url(#light)" opacity="0.95"/>
<polygon points="255.28,235.49 255.65,237.52 255.72,244.07 255.36,242.05" fill="url(#light)" opacity="0.95"/>
<polygon points="255.65,237.52 256.00,239.50 256.00,245.60 255.72,244.07" fill="url(#light)" opacity="0.95"/>
<polygon points="256.00,245.60 256.86,240.81 256.52,252.48 256.00,255.36" fill="url(#light)" opacity="0.95"/>
<polygon points="256.86,240.81 262.38,229.14 259.83,245.48 256.52,252.48" fill="url(#light)" opacity="0.95"/>
<polygon points="262.38,229.14 274.92,217.20 267.35,238.32 259.83,245.48" fill="url(#light)" opacity="0.95"/>
<polygon points="274.92,217.20 293.31,211.83 278.39,235.10 267.35,238.32" fill="url(#light)" opacity="0.95"/>
<polygon points="293.31,211.83 313.10,216.66 290.26,238.00 278.39,235.10" fill="url(#mid)" opacity="0.9"/>
<polygon points="313.10,216.66 328.35,230.86 299.41,246.51 290.26,238.00" fill="url(#mid)" opacity="0.9"/>
<polygon points="328.35,230.86 334.08,250.48 302.85,258.29 299.41,246.51" fill="url(#dark)" opacity="0.93"/>
<polygon points="334.08,250.48 328.35,271.26 299.41,270.76 302.85,258.29" fill="url(#dark)" opacity="0.93"/>
<polygon points="328.35,271.26 313.10,290.74 290.26,282.45 299.41,270.76" fill="url(#dark)" opacity="0.93"/>
<polygon points="313.10,290.74 293.31,308.52 278.39,293.11 290.26,282.45" fill="url(#deep)" opacity="0.96"/>
<polygon points="293.31,308.52 274.92,324.87 267.35,302.92 278.39,293.11" fill="url(#deep)" opacity="0.96"/>
<polygon points="274.92,324.87 262.38,339.11 259.83,311.47 267.35,302.92" fill="url(#deep)" opacity="0.96"/>
<polygon points="262.38,339.11 256.86,349.25 256.52,317.55 259.83,311.47" fill="url(#dark)" opacity="0.93"/>
<polygon points="256.86,349.25 256.00,352.96 256.00,319.78 256.52,317.55" fill="url(#dark)" opacity="0.93"/>
<polygon points="256.00,352.96 255.14,349.25 255.48,317.55 256.00,319.78" fill="url(#dark)" opacity="0.93"/>
<polygon points="255.14,349.25 249.62,339.11 252.17,311.47 255.48,317.55" fill="url(#dark)" opacity="0.93"/>
<polygon points="249.62,339.11 237.08,324.87 244.65,302.92 252.17,311.47" fill="url(#dark)" opacity="0.93"/>
<polygon points="237.08,324.87 218.69,308.52 233.61,293.11 244.65,302.92" fill="url(#mid)" opacity="0.9"/>
<polygon points="218.69,308.52 198.90,290.74 221.74,282.45 233.61,293.11" fill="url(#mid)" opacity="0.9"/>
<polygon points="198.90,290.74 183.65,271.26 212.59,270.76 221.74,282.45" fill="url(#light)" opacity="0.95"/>
<polygon points="183.65,271.26 177.92,250.48 209.15,258.29 212.59,270.76" fill="url(#light)" opacity="0.95"/>
<polygon points="177.92,250.48 183.65,230.86 212.59,246.51 209.15,258.29" fill="url(#flash)" opacity="0.98"/>
<polygon points="183.65,230.86 198.90,216.66 221.74,238.00 212.59,246.51" fill="url(#flash)" opacity="0.98"/>
<polygon points="198.90,216.66 218.69,211.83 233.61,235.10 221.74,238.00" fill="url(#flash)" opacity="0.98"/>
<polygon points="218.69,211.83 237.08,217.20 244.65,238.32 233.61,235.10" fill="url(#flash)" opacity="0.98"/>
<polygon points="237.08,217.20 249.62,229.14 252.17,245.48 244.65,238.32" fill="url(#flash)" opacity="0.98"/>
<polygon points="249.62,229.14 255.14,240.81 255.48,252.48 252.17,245.48" fill="url(#light)" opacity="0.95"/>
<polygon points="255.14,240.81 256.00,245.60 256.00,255.36 255.48,252.48" fill="url(#light)" opacity="0.95"/>
    
      <polygon points="256.00,255.36 256.52,252.48 259.83,245.48 267.35,238.32 278.39,235.10 290.26,238.00 299.41,246.51 302.85,258.29 299.41,270.76 290.26,282.45 278.39,293.11 267.35,302.92 259.83,311.47 256.52,317.55 256.00,319.78 255.48,317.55 252.17,311.47 244.65,302.92 233.61,293.11 221.74,282.45 212.59,270.76 209.15,258.29 212.59,246.51 221.74,238.00 233.61,235.10 244.65,238.32 252.17,245.48 255.48,252.48" fill="url(#table)" opacity=".96"/>
      <polygon points="256.00,258.58 256.40,256.34 258.98,250.88 264.86,245.29 273.46,242.77 282.72,245.04 289.86,251.68 292.54,260.86 289.86,270.59 282.72,279.71 273.46,288.03 264.86,295.68 258.98,302.34 256.40,307.09 256.00,308.83 255.60,307.09 253.02,302.34 247.14,295.68 238.54,288.03 229.28,279.71 222.14,270.59 219.46,260.86 222.14,251.68 229.28,245.04 238.54,242.77 247.14,245.29 253.02,250.88 255.60,256.34" fill="url(#tableGlass)" opacity=".62"/>
    

    <ellipse cx="174.0" cy="195.1" rx="58.6" ry="31.8"
             fill="#fff" opacity=".09" filter="url(#blur)"/>
    <ellipse cx="361.4" cy="406.8" rx="74.2" ry="52.9"
             fill="#000" opacity=".10" filter="url(#blur)"/>

    <g fill="none" stroke="rgba(255,255,255,.10)" stroke-width="1">
      <polygon points="256.00,213.88 257.98,202.86 270.67,176.03 299.53,148.56 341.82,136.20 387.34,147.32 422.41,179.97 435.58,225.10 422.41,272.90 387.34,317.71 341.82,358.60 299.53,396.19 270.67,428.96 257.98,452.26 256.00,460.81 254.02,452.26 241.33,428.96 212.47,396.19 170.18,358.60 124.66,317.71 89.59,272.90 76.42,225.10 89.59,179.97 124.66,147.32 170.18,136.20 212.47,148.56 241.33,176.03 254.02,202.86" fill="none" stroke="rgba(255,255,255,.075)" stroke-width="1"/>
<polygon points="256.00,219.98 257.76,210.16 269.07,186.24 294.80,161.76 332.50,150.74 373.06,160.65 404.32,189.76 416.06,229.98 404.32,272.59 373.06,312.52 332.50,348.97 294.80,382.48 269.07,411.68 257.76,432.45 256.00,440.07 254.24,432.45 242.93,411.68 217.20,382.48 179.50,348.97 138.94,312.52 107.68,272.59 95.94,229.98 107.68,189.76 138.94,160.65 179.50,150.74 217.20,161.76 242.93,186.24 254.24,210.16" fill="none" stroke="rgba(255,255,255,.075)" stroke-width="1"/>
<polygon points="256.00,226.08 257.55,217.45 267.48,196.45 290.06,174.96 323.17,165.29 358.79,173.99 386.24,199.54 396.54,234.86 386.24,272.27 358.79,307.34 323.17,339.34 290.06,368.76 267.48,394.40 257.55,412.64 256.00,419.33 254.45,412.64 244.52,394.40 221.94,368.76 188.83,339.34 153.21,307.34 125.76,272.27 115.46,234.86 125.76,199.54 153.21,173.99 188.83,165.29 221.94,174.96 244.52,196.45 254.45,217.45" fill="none" stroke="rgba(255,255,255,.075)" stroke-width="1"/>
<polygon points="256.00,232.79 257.31,225.48 265.73,207.69 284.86,189.48 312.90,181.28 343.08,188.66 366.34,210.31 375.07,240.23 366.34,271.92 343.08,301.63 312.90,328.75 284.86,353.67 265.73,375.40 257.31,390.85 256.00,396.51 254.69,390.85 246.27,375.40 227.14,353.67 199.10,328.75 168.92,301.63 145.66,271.92 136.93,240.23 145.66,210.31 168.92,188.66 199.10,181.28 227.14,189.48 246.27,207.69 254.69,225.48" fill="none" stroke="rgba(255,255,255,.075)" stroke-width="1"/>
<polygon points="256.00,239.50 257.08,233.51 263.97,218.93 279.66,204.00 302.64,197.28 327.38,203.33 346.44,221.07 353.60,245.60 346.44,271.58 327.38,295.93 302.64,318.15 279.66,338.58 263.97,356.39 257.08,369.06 256.00,373.70 254.92,369.06 248.03,356.39 232.34,338.58 209.36,318.15 184.62,295.93 165.56,271.58 158.40,245.60 165.56,221.07 184.62,203.33 209.36,197.28 232.34,204.00 248.03,218.93 254.92,233.51" fill="none" stroke="rgba(255,255,255,.075)" stroke-width="1"/>
<polygon points="256.00,245.60 256.86,240.81 262.38,229.14 274.92,217.20 293.31,211.83 313.10,216.66 328.35,230.86 334.08,250.48 328.35,271.26 313.10,290.74 293.31,308.52 274.92,324.87 262.38,339.11 256.86,349.25 256.00,352.96 255.14,349.25 249.62,339.11 237.08,324.87 218.69,308.52 198.90,290.74 183.65,271.26 177.92,250.48 183.65,230.86 198.90,216.66 218.69,211.83 237.08,217.20 249.62,229.14 255.14,240.81" fill="none" stroke="rgba(255,255,255,.075)" stroke-width="1"/>
    </g>

    <circle cx="162.3" cy="184.5" r="3.9" fill="#fff" opacity=".92"/>
    <circle cx="193.5" cy="174.0" r="1.8" fill="#fff" opacity=".68"/>
  </g>

  <polygon points="256.00,209.00 258.15,197.02 271.94,167.85 303.31,138.00 349.29,124.57 398.76,136.65 436.88,172.14 451.20,221.20 436.88,273.15 398.76,321.85 349.29,366.30 303.31,407.17 271.94,442.78 258.15,468.11 256.00,477.40 253.85,468.11 240.06,442.78 208.69,407.17 162.71,366.30 113.24,321.85 75.12,273.15 60.80,221.20 75.12,172.14 113.24,136.65 162.71,124.57 208.69,138.00 240.06,167.85 253.85,197.02" fill="none" stroke="url(#rim)" stroke-width="3.2"/>
  <polygon points="256.00,209.00 258.15,197.02 271.94,167.85 303.31,138.00 349.29,124.57 398.76,136.65 436.88,172.14 451.20,221.20 436.88,273.15 398.76,321.85 349.29,366.30 303.31,407.17 271.94,442.78 258.15,468.11 256.00,477.40 253.85,468.11 240.06,442.78 208.69,407.17 162.71,366.30 113.24,321.85 75.12,273.15 60.80,221.20 75.12,172.14 113.24,136.65 162.71,124.57 208.69,138.00 240.06,167.85 253.85,197.02" fill="none" stroke="rgba(0,8,22,.28)" stroke-width="7"/>
</g>
</svg>