<svg xmlns="http://www.w3.org/2000/svg" width="512" height="512" viewBox="0 0 512 512" role="img" aria-label="Rectangular gemstone">
<defs>
  <radialGradient id="base" cx="34%" cy="22%" r="88%">
    <stop offset="0" stop-color="hsl(var(--gem-hue,210) 100% 91%)"/>
    <stop offset=".12" stop-color="hsl(var(--gem-hue,210) 100% 73%)"/>
    <stop offset=".30" stop-color="hsl(var(--gem-hue,210) 98% 55%)"/>
    <stop offset=".56" stop-color="hsl(var(--gem-hue,210) 94% 38%)"/>
    <stop offset=".80" stop-color="hsl(var(--gem-hue,210) 90% 22%)"/>
    <stop offset="1" stop-color="hsl(var(--gem-hue,210) 96% 9%)"/>
  </radialGradient>

  <linearGradient id="flash" x1="0" y1="0" x2="1" y2="1">
    <stop offset="0" stop-color="#fff" stop-opacity=".98"/>
    <stop offset=".34" stop-color="hsl(var(--gem-hue,210) 100% 88%)" stop-opacity=".94"/>
    <stop offset="1" stop-color="hsl(var(--gem-hue,210) 100% 64%)" stop-opacity=".38"/>
  </linearGradient>
  <linearGradient id="light" x1="0" y1="0" x2="1" y2="1">
    <stop offset="0" stop-color="#fff" stop-opacity=".90"/>
    <stop offset=".34" stop-color="hsl(var(--gem-hue,210) 100% 82%)" stop-opacity=".84"/>
    <stop offset="1" stop-color="hsl(var(--gem-hue,210) 97% 56%)" stop-opacity=".28"/>
  </linearGradient>
  <linearGradient id="mid" x1="1" y1="0" x2="0" y2="1">
    <stop offset="0" stop-color="hsl(var(--gem-hue,210) 100% 76%)"/>
    <stop offset=".48" stop-color="hsl(var(--gem-hue,210) 96% 48%)"/>
    <stop offset="1" stop-color="hsl(var(--gem-hue,210) 88% 24%)"/>
  </linearGradient>
  <linearGradient id="dark" x1="0" y1="0" x2="1" y2="1">
    <stop offset="0" stop-color="hsl(var(--gem-hue,210) 90% 42%)"/>
    <stop offset=".46" stop-color="hsl(var(--gem-hue,210) 90% 21%)"/>
    <stop offset="1" stop-color="hsl(var(--gem-hue,210) 98% 11%)"/>
  </linearGradient>
  <linearGradient id="deep" x1="0" y1="0" x2="1" y2="1">
    <stop offset="0" stop-color="hsl(var(--gem-hue,210) 88% 26%)"/>
    <stop offset=".5" stop-color="hsl(var(--gem-hue,210) 94% 13%)"/>
    <stop offset="1" stop-color="#010611"/>
  </linearGradient>

  <radialGradient id="table" cx="38%" cy="30%" r="78%">
    <stop offset="0" stop-color="hsl(var(--gem-hue,210) 100% 84%)" stop-opacity=".58"/>
    <stop offset=".30" stop-color="hsl(var(--gem-hue,210) 98% 56%)" stop-opacity=".72"/>
    <stop offset=".72" stop-color="hsl(var(--gem-hue,210) 88% 31%)" stop-opacity=".88"/>
    <stop offset="1" stop-color="hsl(var(--gem-hue,210) 93% 20%)" stop-opacity=".94"/>
  </radialGradient>
  <linearGradient id="tableGlass" x1="0" y1="0" x2="1" y2="1">
    <stop offset="0" stop-color="#fff" stop-opacity=".26"/>
    <stop offset=".48" stop-color="hsl(var(--gem-hue,210) 100% 73%)" stop-opacity=".10"/>
    <stop offset="1" stop-color="hsl(var(--gem-hue,210) 100% 18%)" stop-opacity=".22"/>
  </linearGradient>

  <linearGradient id="rim" x1="0" y1="0" x2="1" y2="1">
    <stop offset="0" stop-color="#fff" stop-opacity=".78"/>
    <stop offset=".45" stop-color="hsl(var(--gem-hue,210) 100% 84%)" stop-opacity=".30"/>
    <stop offset="1" stop-color="#000" stop-opacity=".18"/>
  </linearGradient>

  <filter id="drop" x="-40%" y="-40%" width="180%" height="200%">
    <feDropShadow dx="0" dy="10" stdDeviation="10" flood-color="#001020" flood-opacity=".28"/>
  </filter>
  <filter id="blur" x="-80%" y="-80%" width="260%" height="260%">
    <feGaussianBlur stdDeviation="8"/>
  </filter>
  <clipPath id="clip"><polygon points="121.00,61.00 391.00,61.00 391.00,451.00 121.00,451.00"/></clipPath>
</defs>

<g filter="url(#drop)">
  <polygon points="121.00,61.00 391.00,61.00 391.00,451.00 121.00,451.00" fill="url(#base)"/>
  <g clip-path="url(#clip)">
    <polygon points="121.00,61.00 391.00,61.00 377.50,80.50 134.50,80.50" fill="url(#light)" opacity="0.95"/>
<polygon points="391.00,61.00 391.00,451.00 377.50,431.50 377.50,80.50" fill="url(#deep)" opacity="0.96"/>
<polygon points="391.00,451.00 121.00,451.00 134.50,431.50 377.50,431.50" fill="url(#deep)" opacity="0.96"/>
<polygon points="121.00,451.00 121.00,61.00 134.50,80.50 134.50,431.50" fill="url(#light)" opacity="0.95"/>
<polygon points="134.50,80.50 377.50,80.50 364.00,100.00 148.00,100.00" fill="url(#light)" opacity="0.95"/>
<polygon points="377.50,80.50 377.50,431.50 364.00,412.00 364.00,100.00" fill="url(#deep)" opacity="0.96"/>
<polygon points="377.50,431.50 134.50,431.50 148.00,412.00 364.00,412.00" fill="url(#deep)" opacity="0.96"/>
<polygon points="134.50,431.50 134.50,80.50 148.00,100.00 148.00,412.00" fill="url(#light)" opacity="0.95"/>
<polygon points="148.00,100.00 364.00,100.00 349.15,121.45 162.85,121.45" fill="url(#light)" opacity="0.95"/>
<polygon points="364.00,100.00 364.00,412.00 349.15,390.55 349.15,121.45" fill="url(#deep)" opacity="0.96"/>
<polygon points="364.00,412.00 148.00,412.00 162.85,390.55 349.15,390.55" fill="url(#deep)" opacity="0.96"/>
<polygon points="148.00,412.00 148.00,100.00 162.85,121.45 162.85,390.55" fill="url(#light)" opacity="0.95"/>
<polygon points="162.85,121.45 349.15,121.45 334.30,142.90 177.70,142.90" fill="url(#light)" opacity="0.95"/>
<polygon points="349.15,121.45 349.15,390.55 334.30,369.10 334.30,142.90" fill="url(#deep)" opacity="0.96"/>
<polygon points="349.15,390.55 162.85,390.55 177.70,369.10 334.30,369.10" fill="url(#deep)" opacity="0.96"/>
<polygon points="162.85,390.55 162.85,121.45 177.70,142.90 177.70,369.10" fill="url(#light)" opacity="0.95"/>
<polygon points="177.70,142.90 334.30,142.90 319.45,164.35 192.55,164.35" fill="url(#light)" opacity="0.95"/>
<polygon points="334.30,142.90 334.30,369.10 319.45,347.65 319.45,164.35" fill="url(#dark)" opacity="0.93"/>
<polygon points="334.30,369.10 177.70,369.10 192.55,347.65 319.45,347.65" fill="url(#deep)" opacity="0.96"/>
<polygon points="177.70,369.10 177.70,142.90 192.55,164.35 192.55,347.65" fill="url(#light)" opacity="0.95"/>
<polygon points="192.55,164.35 319.45,164.35 296.50,197.50 215.50,197.50" fill="url(#light)" opacity="0.95"/>
<polygon points="319.45,164.35 319.45,347.65 296.50,314.50 296.50,197.50" fill="url(#dark)" opacity="0.93"/>
<polygon points="319.45,347.65 192.55,347.65 215.50,314.50 296.50,314.50" fill="url(#deep)" opacity="0.96"/>
<polygon points="192.55,347.65 192.55,164.35 215.50,197.50 215.50,314.50" fill="url(#light)" opacity="0.95"/>
    
      <polygon points="215.50,197.50 296.50,197.50 296.50,314.50 215.50,314.50" fill="url(#table)" opacity=".96"/>
      <polygon points="224.41,210.37 287.59,210.37 287.59,301.63 224.41,301.63" fill="url(#tableGlass)" opacity=".62"/>
    

    <ellipse cx="199.3" cy="139.0" rx="40.5" ry="35.1"
             fill="#fff" opacity=".09" filter="url(#blur)"/>
    <ellipse cx="328.9" cy="373.0" rx="51.3" ry="58.5"
             fill="#000" opacity=".10" filter="url(#blur)"/>

    <g fill="none" stroke="rgba(255,255,255,.10)" stroke-width="1">
      <polygon points="134.50,80.50 377.50,80.50 377.50,431.50 134.50,431.50" fill="none" stroke="rgba(255,255,255,.075)" stroke-width="1"/>
<polygon points="148.00,100.00 364.00,100.00 364.00,412.00 148.00,412.00" fill="none" stroke="rgba(255,255,255,.075)" stroke-width="1"/>
<polygon points="162.85,121.45 349.15,121.45 349.15,390.55 162.85,390.55" fill="none" stroke="rgba(255,255,255,.075)" stroke-width="1"/>
<polygon points="177.70,142.90 334.30,142.90 334.30,369.10 177.70,369.10" fill="none" stroke="rgba(255,255,255,.075)" stroke-width="1"/>
<polygon points="192.55,164.35 319.45,164.35 319.45,347.65 192.55,347.65" fill="none" stroke="rgba(255,255,255,.075)" stroke-width="1"/>
    </g>

    <circle cx="191.2" cy="127.3" r="2.7" fill="#fff" opacity=".92"/>
    <circle cx="212.8" cy="115.6" r="1.2" fill="#fff" opacity=".68"/>
  </g>

  <polygon points="121.00,61.00 391.00,61.00 391.00,451.00 121.00,451.00" fill="none" stroke="url(#rim)" stroke-width="3.2"/>
  <polygon points="121.00,61.00 391.00,61.00 391.00,451.00 121.00,451.00" fill="none" stroke="rgba(0,8,22,.28)" stroke-width="7"/>
</g>
</svg>